<?xml version="1.0" encoding="utf-8"?>
<!-- Generator: Adobe Illustrator 25.2.1, SVG Export Plug-In . SVG Version: 6.00 Build 0)  -->
<svg version="1.1" id="Calque_1" xmlns="http://www.w3.org/2000/svg" xmlns:xlink="http://www.w3.org/1999/xlink" x="0px" y="0px"
	 viewBox="0 0 145.8 92.4" style="enable-background:new 0 0 145.8 92.4;" xml:space="preserve">
<style type="text/css">
	.st0{fill:#FFFFFF;}
	.st1{fill:#273375;}
	.st2{fill:#E30613;}
	.st3{fill:#9D9D9C;}
</style>
<rect class="st0" width="145.8" height="92.4"/>
<rect x="12" y="12" class="st0" width="33.1" height="12"/>
<path class="st1" d="M25.7,22.7c0.1-0.1,0.3-0.3,0.4-0.4c0.2-0.3,0.5-0.5,0.8-0.8c0.1-0.1,0.2-0.1,0.2-0.2c0,0,0-0.1,0-0.1
	c-0.1,0-0.2,0.1-0.3,0.2c0,0,0,0,0,0l0.2-0.2h0c0,0,0,0,0,0c-0.3,0-0.5,0.2-0.7,0.3c0,0-0.1,0-0.1,0c-0.3,0.1-0.6,0.4-0.9,0.5v0
	c-0.1,0-0.3,0.1-0.4,0.2c-0.2,0-0.4,0-0.6,0c-0.3,0-0.6,0.1-0.8,0.1h0c-0.1,0-0.3,0.1-0.4,0.2l0,0l0,0c0,0.1-0.1,0.1-0.2,0.1
	c-0.1,0.1-0.3,0.2-0.4,0.3c0,0,0,0,0,0c-0.1,0.1-0.2,0.2-0.4,0.3c0,0,0,0-0.1,0l0,0l0.1-0.1c0,0,0-0.1,0.1-0.1c0,0,0.1-0.1,0.1-0.1
	c0,0,0,0,0,0c0,0,0,0,0,0c0.1-0.1,0.2-0.2,0.4-0.3c0,0,0,0,0,0c0,0,0,0,0-0.1c0,0,0,0,0,0l0,0c0,0-0.1,0-0.1,0.1
	c-0.1,0-0.1,0.1-0.2,0.1c0,0,0,0,0,0c0,0,0,0,0,0v0l0,0c0,0,0,0,0,0l0,0c0,0,0,0,0,0l0,0l0-0.1l0,0c0,0,0,0,0,0c0,0,0,0,0,0
	c0,0,0,0,0,0c0-0.1,0.1-0.1,0.2-0.1h0c0.1,0,0.2-0.1,0.3-0.1l0,0c-0.1,0-0.2,0.1-0.4,0.2c0,0,0,0,0,0c0,0,0,0-0.1,0v0
	c0,0,0.1-0.1,0.1-0.1c0,0,0,0,0,0c0.7-0.6,1.7-0.4,2.6-0.7l0.2-0.1c0.1,0,0.2-0.2,0.3-0.2c0.2-0.1,0.3-0.3,0.4-0.5c0,0,0,0,0,0
	c-0.3,0.3-0.6,0.6-1,0.7c-0.5,0.2-1,0.2-1.5,0.3c0,0,0.1,0,0.1,0c0-0.1,0-0.1,0.1-0.1h0.1c0,0,0,0,0,0c0,0,0.1,0,0.1,0
	c-0.1-0.1-0.2,0.1-0.3,0c0,0,0-0.1,0.1-0.1h0.1c0,0,0-0.1,0-0.1c0.3-0.2,0.7-0.4,1-0.5c-0.1,0-0.1,0.1-0.2,0c0,0,0-0.1,0-0.1
	c0.2-0.1,0.5-0.2,0.7-0.3c-0.1,0-0.2,0.1-0.2,0c0,0,0.1-0.1,0.1-0.1V20c0,0,0,0,0,0c0,0,0,0,0,0c0,0,0.1,0,0.1-0.1c0,0-0.1,0-0.1,0
	c0.1-0.1,0.2-0.1,0.3-0.1c0,0-0.1,0-0.1,0c0,0,0,0,0,0h0c0,0,0-0.1,0-0.1c0.1-0.2,0.1-0.4,0.2-0.5c0,0,0,0,0,0
	c-0.2,0.2-0.6,0.3-0.9,0.4h-0.1c-0.1,0-0.3,0-0.4,0c-0.1-0.1-0.2-0.1-0.2-0.2c-0.2-0.1-0.4-0.2-0.6-0.3c-0.6-0.2-1.2-0.3-1.8-0.2
	c0.2-0.1,0.5-0.1,0.8-0.2c0.4-0.1,0.8-0.3,1.2-0.2c-0.1,0-0.2,0-0.2,0c-0.3,0-0.6,0.1-1,0.1c-0.2,0-0.4,0.1-0.7,0.2
	c-0.1,0-0.2,0.2-0.4,0.2v-0.1c0.2-0.3,0.5-0.5,0.9-0.6c0.4-0.1,0.8,0,1.2,0c0.3,0,0.6,0.1,0.9,0.2c0.1,0,0.1,0.2,0.2,0.2
	c0.1,0,0.3,0,0.4,0.1c0,0,0-0.1,0-0.1c0.1-0.1,0.2,0,0.3,0c0.2-0.1-0.2-0.3-0.3-0.5c0,0,0,0,0,0c0.2,0.2,0.3,0.3,0.5,0.5
	c0.1,0,0.4,0.1,0.3,0c-0.1-0.2-0.3-0.5-0.5-0.7v-0.1c0,0,0,0-0.1,0v-0.1c-0.1,0-0.1-0.1-0.1-0.2c-0.1-0.1,0-0.3-0.1-0.4
	c0-0.1-0.1-0.3-0.1-0.4c-0.1-0.4-0.2-0.7-0.2-1.1c0-0.4,0.3-0.8,0.5-1.2c0.1-0.3,0.4-0.5,0.6-0.7c0.1-0.3,0.2-0.5,0.4-0.7
	c0.2-0.2,0.4-0.4,0.7-0.5c0.2-0.1,0.4-0.2,0.6-0.2H12v12h11.1c0.4-0.3,0.9-0.5,1.5-0.8C24.8,23.2,25.5,22.9,25.7,22.7L25.7,22.7z
	 M22.2,21c0,0-0.1,0-0.1,0c0-0.1,0.2-0.1,0.3-0.2c0,0,0.1-0.1,0.2,0c0,0.1,0.1,0,0.2,0.1C22.6,21,22.4,20.9,22.2,21L22.2,21z
	 M18.7,20.5C18.7,20.5,18.7,20.5,18.7,20.5c0.3-0.4,0.5-0.8,0.7-1.2c0.3-0.2,0.5-0.4,0.8-0.6c0.4-0.4,0.8-0.7,1.3-1
	c0.2-0.1,0.4-0.1,0.6,0c-0.1,0.1-0.2,0.1-0.3,0.1c0,0,0,0-0.1,0c0,0,0,0,0-0.1c-0.2,0.3-0.5,0.4-0.7,0.7c-0.1,0.2-0.2,0.5-0.5,0.6
	c-0.1,0,0-0.1,0,0C19.8,19.4,19.3,19.9,18.7,20.5L18.7,20.5z M20.6,19C20.6,19.1,20.6,19.1,20.6,19c-0.1,0.1-0.1,0.2-0.2,0.2
	c0,0,0,0,0,0C20.4,19.1,20.5,19,20.6,19C20.6,19,20.6,19,20.6,19L20.6,19z M21.7,22.4C21.7,22.5,21.7,22.5,21.7,22.4
	c0,0.1,0,0.1,0,0.1c0,0.1-0.1,0.1-0.2,0.1h0l-0.1,0.1c0,0-0.2,0-0.1,0c0.1-0.1,0.1-0.1,0.2-0.2c0,0,0.1-0.1,0.1-0.1c0,0,0,0,0-0.1
	C21.6,22.4,21.7,22.4,21.7,22.4L21.7,22.4z M21.3,22.2c-0.1,0.1-0.2,0.1-0.3,0.2c-0.1,0.1-0.2,0.1-0.3,0.1c0,0,0,0,0,0
	c-0.1,0-0.2,0.1-0.2,0.2l-0.1,0.1c0,0,0,0,0,0.1c0,0,0,0,0,0c0,0-0.1,0-0.1,0l0,0l0,0h0h0l-0.1,0.1c0,0-0.1,0.1-0.1,0.1v0l0,0l0,0
	l0,0c0,0,0,0,0,0v0c0,0,0,0,0,0v0l0.1-0.1l0,0l0,0l0,0c0,0,0-0.1,0.1-0.1l0,0c0,0,0,0,0,0l0,0v0c0,0,0,0,0-0.1v0c0,0,0,0,0,0
	c0,0,0,0,0,0v0c0,0,0.1-0.1,0.1-0.1h0c0,0-0.1,0.1-0.1,0.1c0,0-0.1,0,0,0c0,0,0,0,0.1,0c0,0,0,0,0,0c0,0,0.1-0.1,0.1-0.1
	c0,0,0,0,0.1-0.1l0,0c0,0,0,0,0.1-0.1c0.2-0.2,0.6-0.2,0.9-0.3c0.1,0,0.2,0,0.4,0c0.1,0,0.1,0,0.2,0C21.7,22,21.5,22.1,21.3,22.2
	L21.3,22.2z M21.7,20.7C21.7,20.6,21.8,20.7,21.7,20.7L21.7,20.7c-0.1,0-0.1-0.1-0.1-0.1c-0.1,0-0.3,0.1-0.4,0.1
	c-0.2,0-0.3,0.2-0.5,0.2c-0.2,0.1-0.5,0.3-0.7,0.4c0,0,0,0,0,0c0-0.1,0.1-0.1,0.2-0.2c0,0,0,0,0,0c0.2-0.3,0.4-0.4,0.7-0.6v-0.1
	c0.1-0.1,0.2-0.1,0.2-0.2c0-0.1,0.1-0.2,0.2-0.2c0,0-0.1,0-0.1-0.1c-0.1,0-0.2,0-0.3,0c0,0,0.1-0.1,0.1-0.1c0,0,0,0-0.1,0
	c0,0,0-0.1,0.1-0.1c0.1,0,0.2,0,0.3-0.1c-0.2,0-0.3,0-0.5,0c0.1-0.3,0.3-0.5,0.6-0.7c0,0,0.1,0,0.1,0c0,0.1-0.1,0.2-0.2,0.2
	c0.2,0,0.4,0.1,0.5,0.1c0,0-0.1,0-0.1,0c0.1,0.1,0.3,0,0.4,0.1c-0.1,0.1-0.1,0-0.2,0c0.7,0.2,1.5,0.4,2.1,0.8
	c-0.5,0.2-1,0.4-1.6,0.5c-0.1,0-0.1,0-0.2,0c0,0,0,0.1,0,0.1c-0.1,0-0.2,0-0.2,0C22,20.7,21.8,20.7,21.7,20.7L21.7,20.7z M21.7,20.7
	"/>
<path class="st2" d="M45.1,12h-13c0,0,0.1,0,0.1,0.1l0.3,0.2c0.2,0.1,0.3,0.2,0.4,0.4c0,0.1,0.1,0.2,0.1,0.3c0,0.1-0.1,0.3-0.2,0.3
	c-0.2,0.1-0.3,0.1-0.5,0c-0.1,0-0.2,0-0.3,0c0.3,0.1,0.7,0.3,0.9,0.6c0,0,0.1,0.1,0.2,0.1c0,0,0,0,0,0.1c0,0-0.1,0.1-0.1,0.1h0.1
	c0.1,0,0.1-0.3,0.3-0.2c0.1,0.1,0.2,0.2,0.1,0.3c-0.1,0.1-0.2,0.2-0.3,0.2c0,0.1,0,0.1,0,0.2c0.1,0.1,0.1,0.2,0.1,0.3
	c0.1,0.2,0.1,0.3,0.2,0.5c0.1,0.3,0.2,0.7,0.2,1c0,0.2-0.1,0.3,0,0.5c0.1,0.2,0.1,0.3,0.3,0.5c0.1,0.1,0.2,0.2,0.2,0.4
	c0.1,0.2,0.4,0.5,0.3,0.7c-0.1,0.2-0.3,0.1-0.5,0.2c-0.1,0.1,0,0.3,0,0.4c0.1,0.2-0.1,0.3-0.3,0.4c0,0.1,0.1,0,0.2,0.1
	c0,0.1,0.1,0.2,0.1,0.3c-0.1,0.1-0.4,0.2-0.2,0.4c0.1,0.2,0,0.3,0,0.5c-0.1,0.2-0.2,0.3-0.4,0.3c-0.1,0-0.3,0-0.4,0c0,0-0.1,0-0.1,0
	c-0.4,0-0.8-0.2-1.2-0.2c-0.1,0-0.2,0-0.3,0.1c-0.1,0.1-0.2,0.2-0.3,0.2L31,21.5l0,0l0,0c-0.1,0.1-0.1,0.2-0.2,0.3l0,0c0,0,0,0,0,0
	c-0.1,0.1-0.1,0.3-0.2,0.4c-0.2,0.5-0.1,1,0,1.1c0,0,0.7,0.3,1.3,0.5c0.2,0.1,0.4,0.2,0.5,0.3h12.7L45.1,12z M45.1,12"/>
<path class="st3" d="M33,16.4c0.1,0,0.2,0,0.2,0.1c0,0.2-0.3,0.2-0.5,0.4h-0.1c-0.1,0,0,0.2-0.1,0.2c-0.1,0-0.1,0-0.2,0
	c0.1,0.1,0.2,0.2,0.3,0.1c0,0,0.1,0,0.1,0.1c0,0,0,0,0,0c0,0,0,0,0,0v0.1c-0.1,0.1-0.2,0-0.3,0.1c0.2,0,0.3,0,0.5,0
	c0.1,0,0-0.3,0.1-0.4c0,0,0-0.1,0-0.1c0,0,0.1-0.1,0.1-0.1c0.1,0,0.1,0,0.1-0.1c0,0-0.1-0.1-0.1-0.1c0.1-0.1,0.2-0.2,0.2-0.4
	c0-0.1-0.2-0.1-0.3-0.1c-0.1,0-0.3,0-0.4,0c-0.1,0-0.2,0.1-0.3,0.1c-0.2,0.1-0.3,0.1-0.4,0.2c0.2-0.1,0.3-0.1,0.5-0.1
	C32.7,16.4,32.8,16.4,33,16.4L33,16.4z M33,16.4"/>
<path d="M41.6,77.3c0.2,0,0.5,0.2,0.3,0.7l-1.1,0.3C41,77.7,41.3,77.3,41.6,77.3 M42.2,79.2H42c-0.3,0.3-0.6,0.6-0.9,0.6
	c-0.3,0-0.5-0.2-0.5-0.6c0-0.2,0-0.3,0.1-0.5l1.9-0.6c0.4-0.8-0.1-1.2-0.6-1.2c-0.9,0-1.9,1.4-1.9,2.7c0,0.6,0.3,0.9,0.7,0.9
	C41.2,80.4,41.8,79.9,42.2,79.2 M41.8,76.5l1.3-1.2v-0.1h-0.7l-0.8,1.4H41.8z M37.9,77.3h0.6l-1,2.7c-0.1,0.2,0,0.5,0.3,0.5
	c0.5,0,1.4-0.5,1.8-1.3h-0.2c-0.2,0.3-0.7,0.6-1.1,0.7l0.9-2.5H40l0.1-0.4h-0.9l0.3-1h-0.4l-0.6,1l-0.7,0.1V77.3z M37,77.2
	c0.1-0.1,0-0.3-0.1-0.4c0,0-0.1,0-0.1,0c-0.5,0-1.2,0.5-1.4,1.1h0.2c0.2-0.2,0.5-0.5,0.7-0.6l-1,2.6c-0.1,0.1,0,0.3,0.1,0.4
	c0,0,0.1,0,0.1,0c0.5,0,1.1-0.5,1.4-1.1h-0.2c-0.2,0.2-0.5,0.5-0.7,0.6L37,77.2z M37.2,75.9c0.2,0,0.4-0.2,0.4-0.4
	c0-0.2-0.2-0.4-0.4-0.4c-0.2,0-0.4,0.2-0.4,0.4C36.8,75.7,37,75.9,37.2,75.9C37.2,75.9,37.2,75.9,37.2,75.9 M31.4,79.9
	c-0.1,0.3,0,0.5,0.3,0.5c0.2,0,0.3-0.1,0.3-0.2l0.7-1.9c0.3-0.4,1-0.8,1.3-0.8c0.2,0,0.2,0.2,0,0.4L32.9,80c-0.1,0.1,0,0.3,0.1,0.4
	c0,0,0.1,0,0.1,0c0.5,0,1.2-0.5,1.4-1.1h-0.2c-0.2,0.2-0.5,0.5-0.7,0.6l0.9-1.9c0.1-0.2,0.2-0.4,0.2-0.6c0-0.3-0.2-0.5-0.4-0.5
	c0,0-0.1,0-0.1,0c-0.5,0-0.9,0.5-1.5,1.2v-0.5c0-0.4-0.1-0.7-0.4-0.7c-0.2,0-0.4,0.2-0.6,0.4v0.1c0.3,0,0.5,0.5,0.3,1L31.4,79.9z
	 M31.3,77.6c0.1-0.4,0.1-0.8-0.3-0.8c-0.4,0-0.5,0.3-0.9,1.2v-0.5c0-0.4-0.1-0.7-0.4-0.7c-0.4,0-0.7,0.6-1,1.1h0.2
	c0.2-0.3,0.3-0.4,0.5-0.4c0.2,0,0.2,0.2,0,0.8l-0.7,1.6c-0.1,0.3,0,0.5,0.3,0.5c0.2,0,0.3-0.1,0.3-0.2l0.7-1.9
	c0.2-0.2,0.4-0.5,0.6-0.7L31.3,77.6L31.3,77.6z M27.3,77.3c0.2,0,0.5,0.2,0.3,0.7l-1.1,0.3C26.7,77.7,27,77.3,27.3,77.3 M27.9,79.1
	h-0.2c-0.3,0.3-0.6,0.6-0.9,0.6c-0.3,0-0.5-0.2-0.5-0.6c0-0.2,0-0.3,0.1-0.5l1.8-0.6c0.4-0.8-0.1-1.2-0.6-1.2
	c-0.9,0-1.9,1.4-1.9,2.7c0,0.6,0.3,0.9,0.7,0.9C26.9,80.4,27.5,79.9,27.9,79.1 M23.5,77.3h0.6l-1,2.7c-0.1,0.2,0,0.5,0.3,0.5
	c0.5,0,1.4-0.5,1.8-1.3H25c-0.2,0.3-0.7,0.6-1.1,0.7l0.9-2.5h0.9l0.1-0.4H25l0.3-1H25l-0.6,1l-0.8,0.1L23.5,77.3z M20.2,79.4
	c0-0.8,0.9-1.9,1.4-1.9c0.1,0,0.2,0,0.3,0l-0.5,1.4c-0.3,0.4-0.8,0.8-1,0.8C20.3,79.8,20.2,79.6,20.2,79.4 M23,76.7l-0.3,0L22.4,77
	h-0.1c-1.5,0-2.8,1.7-2.8,2.9c0,0.3,0.2,0.5,0.5,0.5c0,0,0.1,0,0.1,0c0.4,0,0.8-0.6,1.2-1.2l0,0.2c-0.1,0.6,0.1,0.9,0.4,0.9
	c0.4,0,0.7-0.6,1-1.1h-0.2c-0.2,0.3-0.3,0.4-0.5,0.4c-0.1,0-0.2-0.3,0-0.8L23,76.7z M19.8,77.6c0.1-0.4,0.1-0.8-0.3-0.8
	c-0.4,0-0.5,0.3-0.9,1.2v-0.5c0-0.4-0.1-0.7-0.4-0.7c-0.4,0-0.7,0.6-1,1.1h0.2c0.2-0.3,0.3-0.4,0.5-0.4c0.2,0,0.2,0.2,0,0.8
	l-0.7,1.6c-0.1,0.3,0,0.5,0.3,0.5c0.2,0,0.3,0,0.3-0.2l0.7-1.9c0.2-0.2,0.4-0.5,0.6-0.7L19.8,77.6L19.8,77.6z M14.7,80.3l0.1-0.2
	c-0.9-0.2-1-0.2-0.6-1.1l0.4-1h1c0.4,0,0.4,0.2,0.4,0.7h0.3l0.6-1.6h-0.3c-0.2,0.4-0.4,0.7-0.9,0.7h-1l0.5-1.4
	c0.2-0.4,0.3-0.5,0.8-0.5h0.4c0.6,0,0.7,0.2,0.7,0.8h0.2l0.2-1.1h-3.7l-0.1,0.2c0.7,0.1,0.8,0.2,0.4,1.1L13.4,79
	c-0.3,0.9-0.5,1-1.3,1.1l-0.1,0.2H14.7z M14.7,80.3"/>
<path d="M32.7,69c0.2,0,0.5,0.2,0.3,0.7l-1.1,0.3C32.1,69.4,32.4,69,32.7,69 M33.3,70.8h-0.2c-0.3,0.3-0.6,0.6-0.9,0.6
	s-0.5-0.2-0.5-0.6c0-0.2,0-0.3,0.1-0.5l1.8-0.6c0.4-0.8-0.1-1.2-0.6-1.2c-0.9,0-1.9,1.5-1.9,2.7c0,0.6,0.3,0.9,0.7,0.9
	C32.3,72.1,32.9,71.6,33.3,70.8 M32.9,68.2l1.3-1.2v-0.1h-0.7l-0.8,1.3H32.9z M28.9,69h0.6l-1,2.7c-0.1,0.2,0,0.4,0.3,0.4
	c0.5,0,1.5-0.5,1.8-1.3h-0.2c-0.2,0.3-0.7,0.6-1.1,0.7l0.9-2.5h0.9l0.1-0.4h-0.9l0.3-1h-0.3l-0.6,1L29,68.7L28.9,69z M28.1,68.9
	c0.1-0.1,0-0.3-0.1-0.4c0,0-0.1,0-0.1,0c-0.5,0-1.2,0.5-1.4,1.1h0.2c0.2-0.2,0.5-0.5,0.7-0.6l-1,2.6c-0.1,0.1,0,0.3,0.1,0.4
	c0,0,0.1,0,0.1,0c0.5,0,1.1-0.5,1.4-1.1h-0.2c-0.2,0.2-0.5,0.5-0.7,0.6L28.1,68.9z M28.3,67.6c0.2,0,0.4-0.2,0.4-0.4
	c0-0.2-0.2-0.4-0.4-0.4c-0.2,0-0.4,0.2-0.4,0.4c0,0,0,0,0,0C27.9,67.4,28.1,67.6,28.3,67.6C28.3,67.6,28.3,67.6,28.3,67.6
	 M24.8,71.5l1.9-4.9l-0.1-0.1l-1.2,0.1v0.1l0.2,0.2c0.2,0.2,0.1,0.3,0,0.8l-1.5,3.8c-0.1,0.1,0,0.3,0.1,0.4c0,0,0.1,0,0.1,0
	c0.5,0,1.1-0.5,1.3-1.1h-0.2C25.4,71.3,25.1,71.5,24.8,71.5 M21.2,71.1c0-0.8,0.9-1.9,1.4-1.9c0.1,0,0.2,0,0.3,0l-0.5,1.4
	c-0.3,0.4-0.8,0.8-1,0.8C21.3,71.4,21.2,71.3,21.2,71.1 M24.1,68.4l-0.3,0l-0.3,0.3h0c-1.5,0-2.8,1.7-2.8,2.9c0,0.3,0.2,0.5,0.5,0.5
	c0,0,0.1,0,0.1,0c0.4,0,0.8-0.6,1.2-1.2l0,0.2c-0.1,0.6,0.1,0.9,0.4,0.9c0.4,0,0.7-0.6,1-1.1h-0.2c-0.2,0.3-0.3,0.4-0.5,0.4
	c-0.1,0-0.2-0.3,0-0.8L24.1,68.4z M17.3,72.8c0-0.4,0.3-0.6,0.8-0.8c0.2,0.1,0.5,0.2,0.7,0.3c0.5,0.2,0.7,0.2,0.7,0.4
	c0,0.3-0.5,0.6-1.3,0.6C17.6,73.3,17.3,73.1,17.3,72.8 M18.7,70.6c-0.2,0-0.3-0.2-0.3-0.4c0-0.6,0.3-1.5,0.8-1.5
	c0.2,0,0.3,0.2,0.3,0.4C19.5,69.8,19.2,70.6,18.7,70.6 M20.1,72.5c0-0.4-0.4-0.6-1-0.8c-0.5-0.2-0.8-0.2-0.8-0.4
	c0-0.1,0.1-0.3,0.3-0.4c0.8-0.1,1.4-0.7,1.4-1.5c0-0.1,0-0.2-0.1-0.4h0.7l0.1-0.4h-1.2c-0.1-0.1-0.3-0.1-0.5-0.1
	c-0.8,0-1.5,0.7-1.5,1.5c0,0.4,0.3,0.8,0.7,0.9c-0.4,0.2-0.7,0.4-0.7,0.7c0,0.1,0.1,0.3,0.2,0.4c-1,0.3-1.4,0.6-1.4,1.1
	c0,0.5,0.6,0.6,1.3,0.6C19.1,73.7,20.1,73,20.1,72.5 M15.4,69.6c0.4,0,0.4,0.2,0.4,0.7h0.3l0.6-1.6h-0.3c-0.2,0.4-0.4,0.7-0.9,0.7
	h-1l0.5-1.3c0.2-0.4,0.3-0.5,0.8-0.5h0.4c0.6,0,0.7,0.2,0.7,0.8h0.2l0.2-1.1h-3.6l-0.1,0.2c0.7,0.1,0.8,0.2,0.4,1.1l-0.8,2.2
	c-0.3,0.9-0.5,1-1.3,1.1L12,72h4.1l0.7-1.2h-0.3c-0.5,0.4-1,0.9-1.9,0.9c-1.1,0-1,0-0.6-1l0.4-1.1L15.4,69.6L15.4,69.6z M16,66.8
	l1.3-0.9v-0.1h-0.8l-0.7,1H16z M16,66.8"/>
<path d="M32.2,60.7c0.2,0,0.5,0.2,0.3,0.7l-1.1,0.3C31.6,61.1,32,60.7,32.2,60.7 M32.9,62.5h-0.2c-0.3,0.3-0.6,0.6-0.9,0.6
	s-0.5-0.2-0.5-0.6c0-0.2,0-0.3,0.1-0.5l1.9-0.6c0.4-0.8-0.1-1.2-0.6-1.2c-0.9,0-1.9,1.4-1.9,2.7c0,0.6,0.3,0.9,0.7,0.9
	C31.9,63.8,32.4,63.3,32.9,62.5 M32.5,59.9l1.3-1.2v-0.1h-0.7l-0.8,1.4H32.5z M28.7,60.7h0.5l-1,2.7c-0.1,0.2,0,0.4,0.3,0.4
	c0.5,0,1.4-0.5,1.8-1.3h-0.2c-0.2,0.3-0.7,0.6-1.1,0.7l0.9-2.5h0.9l0.1-0.4h-0.9l0.3-1h-0.3l-0.6,1l-0.6,0.1V60.7z M28.2,61
	c0.1-0.4,0.1-0.8-0.3-0.8c-0.4,0-0.5,0.3-0.9,1.2v-0.5c0-0.4-0.1-0.7-0.4-0.7c-0.4,0-0.7,0.6-1,1.1h0.2c0.2-0.3,0.3-0.4,0.5-0.4
	c0.2,0,0.2,0.2,0,0.8l-0.7,1.6c-0.1,0.3,0,0.5,0.3,0.5c0.2,0,0.3,0,0.3-0.2l0.7-1.9c0.2-0.2,0.4-0.5,0.6-0.7H28.2z M24.1,60.7
	c0.2,0,0.5,0.2,0.3,0.7l-1.1,0.3C23.5,61.1,23.9,60.7,24.1,60.7 M24.8,62.5h-0.2c-0.3,0.3-0.6,0.6-0.9,0.6s-0.5-0.2-0.5-0.6
	c0-0.2,0-0.3,0.1-0.5l1.8-0.6c0.4-0.8-0.1-1.2-0.6-1.2c-0.9,0-1.9,1.4-1.9,2.7c0,0.6,0.3,0.9,0.7,0.9C23.8,63.8,24.3,63.3,24.8,62.5
	 M20.2,63.3c-0.2,0-0.4-0.2-0.4-0.3c0-0.2,0.1-0.3,0.2-0.5l0.3-0.8c0.3-0.4,0.8-0.8,1.1-0.8c0.2,0,0.3,0.1,0.3,0.4
	C21.7,62,21,63.3,20.2,63.3 M22.3,60.9c0-0.5-0.2-0.7-0.6-0.7c-0.5,0-0.9,0.5-1.3,1.1l1.1-2.9l-0.1-0.1l-1.2,0.1v0.1l0.2,0.2
	c0.2,0.2,0.1,0.3,0,0.8l-1.2,3.1c-0.1,0.2-0.1,0.4-0.2,0.6c0,0.3,0.4,0.6,0.8,0.6C20.8,63.8,22.3,62.2,22.3,60.9 M18.7,60.6
	c0.1-0.1,0-0.3-0.1-0.4c0,0-0.1,0-0.1,0c-0.5,0-1.2,0.5-1.4,1.1h0.2c0.2-0.2,0.5-0.5,0.7-0.6l-1,2.6c-0.1,0.1,0,0.3,0.1,0.4
	c0,0,0.1,0,0.1,0c0.5,0,1.1-0.5,1.3-1.1h-0.2c-0.2,0.2-0.5,0.5-0.7,0.6L18.7,60.6z M18.9,59.3c0.2,0,0.4-0.2,0.4-0.4
	c0-0.2-0.2-0.4-0.4-0.4c-0.2,0-0.4,0.2-0.4,0.4C18.5,59.1,18.7,59.3,18.9,59.3 M16.2,58.8h-2.4L13.7,59c0.7,0.1,0.8,0.2,0.4,1.1
	l-0.8,2.2c-0.3,0.9-0.5,1-1.3,1.1L12,63.7h3.7l0.8-1.4h-0.3c-0.5,0.5-1,1.1-1.8,1.1c-0.6,0-0.7-0.1-0.4-1l0.8-2.2
	c0.3-0.9,0.5-1,1.3-1.1L16.2,58.8z M16.2,58.8"/>
<g>
	<path d="M12.1,39.2h2l0.9-2.4h3.6l0.9,2.4h2L18,30h-2.4L12.1,39.2z M15.5,35.2l1.2-3.4l1.2,3.4H15.5z M15.5,35.2"/>
	<path d="M26.8,37.7c-1.7,0-3-1.3-3-3.1c0-1.7,1.2-3.1,3-3.1c1,0,1.9,0.5,2.4,1.2l1.5-1.1c-0.8-1.1-2.2-1.9-3.8-1.9
		C24,29.8,22,32,22,34.6c0,2.6,2,4.8,4.8,4.8c1.6,0,3-0.7,3.8-1.9l-1.5-1.1C28.7,37.2,27.9,37.7,26.8,37.7L26.8,37.7z M26.8,37.7"/>
	<path d="M31.2,39.2h2l0.9-2.4h3.6l0.9,2.4h2L37.1,30h-2.4L31.2,39.2z M34.6,35.2l1.2-3.4l1.2,3.4H34.6z M34.6,35.2"/>
	<path d="M42.1,39.2h3.6c2.9,0,4.8-2.1,4.8-4.6c0-2.5-2-4.5-4.8-4.5h-3.6V39.2z M45.7,31.7c1.7,0,2.9,1.2,2.9,2.9
		c0,1.6-1.2,2.9-2.9,2.9h-1.8v-5.8H45.7z M45.7,31.7"/>
	<path d="M55.9,29.3l1.7-1.8h-1.9l-1.5,1.8H55.9z M52.4,39.2h5.3v-1.5h-3.5v-2.3h2.9v-1.5h-2.9v-2.2h3.5V30h-5.3V39.2z M52.4,39.2"
		/>
	<path d="M60,39.2h1.8v-6.5l2,3.4h1.3l2-3.4v6.5h1.9V30h-2.3l-2.2,3.8L62.3,30H60V39.2z M60,39.2"/>
	<rect x="71.7" y="30" width="1.8" height="9.1"/>
	<path d="M76.2,39.2h5.3v-1.5h-3.5v-2.3H81v-1.5h-2.9v-2.2h3.5V30h-5.3V39.2z M76.2,39.2"/>
</g>
<g>
	<path d="M12.1,52.2h3.6c2.9,0,4.8-2.1,4.8-4.6c0-2.5-2-4.5-4.8-4.5h-3.6V52.2z M15.7,44.8c1.7,0,2.9,1.2,2.9,2.9
		c0,1.6-1.2,2.9-2.9,2.9H14v-5.8H15.7z M15.7,44.8"/>
	<path d="M22.8,46.8l1.5-3.8h-1.9l-1.2,3.8H22.8z M22.8,46.8"/>
	<path d="M29.5,42.8c-2.9,0-4.8,2.2-4.8,4.8c0,2.6,2,4.8,4.8,4.8c2.9,0,4.8-2.2,4.8-4.8C34.4,45,32.4,42.8,29.5,42.8L29.5,42.8z
		 M29.5,50.7c-1.7,0-3-1.3-3-3.1c0-1.7,1.2-3.1,3-3.1c1.7,0,2.9,1.3,2.9,3.1C32.4,49.4,31.2,50.7,29.5,50.7L29.5,50.7z M29.5,50.7"
		/>
	<path d="M36.2,52.2h1.8v-3.7h1l2.4,3.7h2.2l-2.9-4c0.9-0.4,1.5-1.3,1.5-2.4c0-1.7-1.2-2.7-3.2-2.7h-2.8V52.2z M39.1,44.6
		c0.8,0,1.2,0.5,1.2,1.2c0,0.8-0.5,1.2-1.2,1.2h-1v-2.4H39.1z M39.1,44.6"/>
	<path d="M45,52.2h5.3v-1.7h-3.5v-7.4H45V52.2z M45,52.2"/>
	<path d="M55.5,42.3l1.7-1.8h-1.9l-1.5,1.8H55.5z M52,52.2h5.3v-1.5h-3.5v-2.3h2.9v-1.5h-2.9v-2.2h3.5v-1.5H52V52.2z M52,52.2"/>
	<path d="M58.7,52.2h2l0.9-2.4h3.6l0.9,2.4h2l-3.5-9.1h-2.4L58.7,52.2z M62.1,48.3l1.2-3.4l1.2,3.4H62.1z M62.1,48.3"/>
	<path d="M69.6,52.2h1.8v-6.6l4.1,6.6h2.4v-9.1H76v6.6l-4.1-6.6h-2.4V52.2z M69.6,52.2"/>
	<path d="M79.7,50.9c0.8,1,1.8,1.5,3.4,1.5c1.7,0,3-1,3-2.8c0-3.1-4.1-2.7-4.1-4.3c0-0.5,0.4-1,1.1-1c0.7,0,1.3,0.5,1.8,1.1l1.4-1.2
		c-0.8-0.9-1.8-1.5-3.2-1.5c-1.8,0-3,1.2-3,2.6c0,3.1,4.1,2.6,4.1,4.3c0,0.7-0.4,1-1.2,1c-0.7,0-1.5-0.4-2-1.1L79.7,50.9z
		 M79.7,50.9"/>
	<rect x="87.1" y="48.1" width="3.5" height="1.6"/>
	<path d="M90.2,44.8H93v7.4h1.8v-7.4h2.8v-1.7h-7.5V44.8z M90.2,44.8"/>
	<path d="M103.1,42.8c-2.9,0-4.8,2.2-4.8,4.8c0,2.6,2,4.8,4.8,4.8c2.9,0,4.8-2.2,4.8-4.8C107.9,45,105.9,42.8,103.1,42.8L103.1,42.8
		z M103.1,50.7c-1.7,0-3-1.3-3-3.1c0-1.7,1.2-3.1,3-3.1c1.7,0,2.9,1.3,2.9,3.1C106,49.4,104.8,50.7,103.1,50.7L103.1,50.7z
		 M103.1,50.7"/>
	<path d="M115.1,48.8c0,1.2-0.7,1.9-1.8,1.9c-1.2,0-1.9-0.7-1.9-1.9v-5.7h-1.8v5.5c0,2.4,1.4,3.8,3.7,3.8c2.3,0,3.7-1.4,3.7-3.8
		v-5.5h-1.8V48.8z M115.1,48.8"/>
	<path d="M119.4,52.2h1.8v-3.7h1l2.4,3.7h2.2l-2.9-4c0.9-0.4,1.5-1.3,1.5-2.4c0-1.7-1.2-2.7-3.2-2.7h-2.8V52.2z M122.3,44.6
		c0.8,0,1.2,0.5,1.2,1.2c0,0.8-0.5,1.2-1.2,1.2h-1v-2.4H122.3z M122.3,44.6"/>
	<path d="M127.3,50.9c0.8,1,1.8,1.5,3.4,1.5c1.7,0,3-1,3-2.8c0-3.1-4.1-2.7-4.1-4.3c0-0.5,0.4-1,1.1-1c0.7,0,1.3,0.5,1.8,1.1
		l1.4-1.2c-0.8-0.9-1.8-1.5-3.2-1.5c-1.8,0-3,1.2-3,2.6c0,3.1,4.1,2.6,4.1,4.3c0,0.7-0.4,1-1.2,1c-0.7,0-1.5-0.4-2-1.1L127.3,50.9z
		 M127.3,50.9"/>
</g>
</svg>
